<?xml version="1.0" encoding="UTF-8" standalone="no"?>
<!-- Created with Inkscape (http://www.inkscape.org/) -->

<svg
   width="25.724905mm"
   height="34.066078mm"
   viewBox="0 0 25.724905 34.066078"
   version="1.1"
   id="svg1"
   xml:space="preserve"
   xmlns="http://www.w3.org/2000/svg"
   xmlns:svg="http://www.w3.org/2000/svg"><defs
     id="defs1" /><g
     id="layer1"
     transform="translate(-0.03206108,-1.2827358)"><path
       style="fill:#000000;stroke-width:0.264583"
       d="m 0.03206108,22.555944 c 0,0 0.04747,5.092973 0,0 z"
       id="path1" /><g
       id="g7"><ellipse
         style="fill:#231f20;fill-opacity:1;stroke-width:0.264583"
         id="path2"
         cx="5.1519532"
         cy="22.94783"
         rx="4.5633993"
         ry="4.7606411" /><ellipse
         style="fill:#231f20;fill-opacity:1;stroke-width:0.264583"
         id="path4"
         cx="20.857756"
         cy="15.513699"
         rx="4.7464466"
         ry="4.7733316" /><ellipse
         style="fill:#231f20;fill-opacity:1;stroke-width:0.264583"
         id="path5"
         cx="20.998266"
         cy="30.500282"
         rx="4.7586989"
         ry="4.8485312" /><path
         style="fill:#231f20;fill-opacity:1;fill-rule:nonzero;stroke-width:0.264583"
         id="path6"
         d="m 46.225481,31.899957 -3.502334,3.684404 -3.255462,3.424697 A 1.0706615,1.0706615 13.548775 0 1 37.664853,38.574613 L 36.326708,34.042951 34.77735,28.796008 a 0.64006529,0.64006529 133.54878 0 1 0.763812,-0.803519 l 5.318666,1.281688 4.941953,1.190909 a 0.86378586,0.86378586 73.548775 0 1 0.4237,1.434871 z"
         transform="matrix(0.91470371,-0.00376453,-9.6916618e-4,0.96416839,-29.376336,-25.556327)" /><rect
         style="fill:#231f20;fill-opacity:1;fill-rule:nonzero;stroke-width:0.36962"
         id="rect6"
         width="1.3903983"
         height="5.7242184"
         x="-1.8773478"
         y="14.312698"
         transform="matrix(0.65435125,-0.75619074,0.82720087,0.56190632,0,0)"
         ry="0.57743543" /><rect
         style="fill:#231f20;fill-opacity:1;fill-rule:nonzero;stroke-width:0.36962"
         id="rect6-0"
         width="1.3903983"
         height="5.7242184"
         x="-18.429405"
         y="23.315928"
         transform="matrix(0.57688241,-0.81682721,0.87841019,0.47790746,0,0)"
         ry="0.57743543" /><rect
         style="fill:#231f20;fill-opacity:1;fill-rule:nonzero;stroke-width:0.354914"
         id="rect6-2"
         width="1.4124963"
         height="5.1952081"
         x="-24.050812"
         y="-1.5656929"
         transform="matrix(-0.52149332,-0.85325537,0.86115832,-0.50833684,0,0)"
         ry="0.5240711" /></g></g></svg>
